<svg width="1024" height="1024" viewBox="0 0 1024 1024" fill="none" xmlns="http://www.w3.org/2000/svg">
<g clip-path="url(#clip0_304_10)">
<circle cx="512" cy="512" r="512" fill="#808080"/>
<path d="M578.333 456.667V400C596.667 392.222 615.417 386.389 634.583 382.5C653.75 378.611 673.889 376.667 695 376.667C709.444 376.667 723.611 377.778 737.5 380C751.389 382.222 765 385 778.333 388.333V441.667C765 436.667 751.528 432.917 737.917 430.417C724.306 427.917 710 426.667 695 426.667C673.889 426.667 653.611 429.306 634.167 434.583C614.722 439.861 596.111 447.222 578.333 456.667ZM578.333 640V583.333C596.667 575.556 615.417 569.722 634.583 565.833C653.75 561.944 673.889 560 695 560C709.444 560 723.611 561.111 737.5 563.333C751.389 565.556 765 568.333 778.333 571.667V625C765 620 751.528 616.25 737.917 613.75C724.306 611.25 710 610 695 610C673.889 610 653.611 612.5 634.167 617.5C614.722 622.5 596.111 630 578.333 640ZM578.333 548.333V491.667C596.667 483.889 615.417 478.056 634.583 474.167C653.75 470.278 673.889 468.333 695 468.333C709.444 468.333 723.611 469.444 737.5 471.667C751.389 473.889 765 476.667 778.333 480V533.333C765 528.333 751.528 524.583 737.917 522.083C724.306 519.583 710 518.333 695 518.333C673.889 518.333 653.611 520.972 634.167 526.25C614.722 531.528 596.111 538.889 578.333 548.333ZM545 695C569.444 683.333 594.028 674.583 618.75 668.75C643.472 662.917 668.889 660 695 660C715 660 734.583 661.667 753.75 665C772.917 668.333 792.222 673.333 811.667 680V350C793.333 342.222 774.306 336.389 754.583 332.5C734.861 328.611 715 326.667 695 326.667C668.889 326.667 643.056 330 617.5 336.667C591.944 343.333 567.778 353.333 545 366.667V695ZM511.667 793.333C485 772.222 456.111 755.833 425 744.167C393.889 732.5 361.667 726.667 328.333 726.667C305 726.667 282.083 729.722 259.583 735.833C237.083 741.944 215.556 750.556 195 761.667C183.333 767.778 172.083 767.5 161.25 760.833C150.417 754.167 145 744.444 145 731.667V330C145 323.889 146.528 318.056 149.583 312.5C152.639 306.944 157.222 302.778 163.333 300C189.444 287.222 216.25 277.361 243.75 270.417C271.25 263.472 299.444 260 328.333 260C360.556 260 392.083 264.167 422.917 272.5C453.75 280.833 483.333 293.333 511.667 310C540 293.333 569.583 280.833 600.417 272.5C631.25 264.167 662.778 260 695 260C723.889 260 752.083 263.472 779.583 270.417C807.083 277.361 833.889 287.222 860 300C866.111 302.778 870.694 306.944 873.75 312.5C876.806 318.056 878.333 323.889 878.333 330V731.667C878.333 744.444 872.917 754.167 862.083 760.833C851.25 767.5 840 767.778 828.333 761.667C807.778 750.556 786.25 741.944 763.75 735.833C741.25 729.722 718.333 726.667 695 726.667C661.667 726.667 629.444 732.5 598.333 744.167C567.222 755.833 538.333 772.222 511.667 793.333Z" fill="black" fill-opacity="0.5"/>
<path d="M578.333 426.667V370C596.667 362.222 615.417 356.389 634.583 352.5C653.75 348.611 673.889 346.667 695 346.667C709.444 346.667 723.611 347.778 737.5 350C751.389 352.222 765 355 778.333 358.333V411.667C765 406.667 751.528 402.917 737.917 400.417C724.306 397.917 710 396.667 695 396.667C673.889 396.667 653.611 399.306 634.167 404.583C614.722 409.861 596.111 417.222 578.333 426.667ZM578.333 610V553.333C596.667 545.556 615.417 539.722 634.583 535.833C653.75 531.944 673.889 530 695 530C709.444 530 723.611 531.111 737.5 533.333C751.389 535.556 765 538.333 778.333 541.667V595C765 590 751.528 586.25 737.917 583.75C724.306 581.25 710 580 695 580C673.889 580 653.611 582.5 634.167 587.5C614.722 592.5 596.111 600 578.333 610ZM578.333 518.333V461.667C596.667 453.889 615.417 448.056 634.583 444.167C653.75 440.278 673.889 438.333 695 438.333C709.444 438.333 723.611 439.444 737.5 441.667C751.389 443.889 765 446.667 778.333 450V503.333C765 498.333 751.528 494.583 737.917 492.083C724.306 489.583 710 488.333 695 488.333C673.889 488.333 653.611 490.972 634.167 496.25C614.722 501.528 596.111 508.889 578.333 518.333ZM545 665C569.444 653.333 594.028 644.583 618.75 638.75C643.472 632.917 668.889 630 695 630C715 630 734.583 631.667 753.75 635C772.917 638.333 792.222 643.333 811.667 650V320C793.333 312.222 774.306 306.389 754.583 302.5C734.861 298.611 715 296.667 695 296.667C668.889 296.667 643.056 300 617.5 306.667C591.944 313.333 567.778 323.333 545 336.667V665ZM511.667 763.333C485 742.222 456.111 725.833 425 714.167C393.889 702.5 361.667 696.667 328.333 696.667C305 696.667 282.083 699.722 259.583 705.833C237.083 711.944 215.556 720.556 195 731.667C183.333 737.778 172.083 737.5 161.25 730.833C150.417 724.167 145 714.444 145 701.667V300C145 293.889 146.528 288.056 149.583 282.5C152.639 276.944 157.222 272.778 163.333 270C189.444 257.222 216.25 247.361 243.75 240.417C271.25 233.472 299.444 230 328.333 230C360.556 230 392.083 234.167 422.917 242.5C453.75 250.833 483.333 263.333 511.667 280C540 263.333 569.583 250.833 600.417 242.5C631.25 234.167 662.778 230 695 230C723.889 230 752.083 233.472 779.583 240.417C807.083 247.361 833.889 257.222 860 270C866.111 272.778 870.694 276.944 873.75 282.5C876.806 288.056 878.333 293.889 878.333 300V701.667C878.333 714.444 872.917 724.167 862.083 730.833C851.25 737.5 840 737.778 828.333 731.667C807.778 720.556 786.25 711.944 763.75 705.833C741.25 699.722 718.333 696.667 695 696.667C661.667 696.667 629.444 702.5 598.333 714.167C567.222 725.833 538.333 742.222 511.667 763.333Z" fill="white"/>
</g>
<defs>
<clipPath id="clip0_304_10">
<rect width="1024" height="1024" fill="white"/>
</clipPath>
</defs>
</svg>
