<svg width="1024" height="1024" viewBox="0 0 1024 1024" fill="none" xmlns="http://www.w3.org/2000/svg">
<g clip-path="url(#clip0_135_71)">
<circle cx="512" cy="512" r="512" fill="#F0925E"/>
<path d="M723.5 822L635.75 735L569.75 801L548.75 780C537.25 768.5 531.5 754.25 531.5 737.25C531.5 720.25 537.25 706 548.75 694.5L675.5 567.75C687 556.25 701.25 550.5 718.25 550.5C735.25 550.5 749.5 556.25 761 567.75L782 588.75L716 654.75L803 742.5C809 748.5 812 755.5 812 763.5C812 771.5 809 778.5 803 784.5L765.5 822C759.5 828 752.5 831 744.5 831C736.5 831 729.5 828 723.5 822ZM812 351L471.5 691.5L475.25 694.5C486.75 706 492.5 720.25 492.5 737.25C492.5 754.25 486.75 768.5 475.25 780L454.25 801L388.25 735L300.5 822C294.5 828 287.5 831 279.5 831C271.5 831 264.5 828 258.5 822L221 784.5C215 778.5 212 771.5 212 763.5C212 755.5 215 748.5 221 742.5L308 654.75L242 588.75L263 567.75C274.5 556.25 288.75 550.5 305.75 550.5C322.75 550.5 337 556.25 348.5 567.75L351.5 571.5L692 231H812V351ZM360.5 499.5L212 351V231H332L480.5 379.5L360.5 499.5Z" fill="black" fill-opacity="0.5"/>
<path d="M723.5 784L635.75 697L569.75 763L548.75 742C537.25 730.5 531.5 716.25 531.5 699.25C531.5 682.25 537.25 668 548.75 656.5L675.5 529.75C687 518.25 701.25 512.5 718.25 512.5C735.25 512.5 749.5 518.25 761 529.75L782 550.75L716 616.75L803 704.5C809 710.5 812 717.5 812 725.5C812 733.5 809 740.5 803 746.5L765.5 784C759.5 790 752.5 793 744.5 793C736.5 793 729.5 790 723.5 784ZM812 313L471.5 653.5L475.25 656.5C486.75 668 492.5 682.25 492.5 699.25C492.5 716.25 486.75 730.5 475.25 742L454.25 763L388.25 697L300.5 784C294.5 790 287.5 793 279.5 793C271.5 793 264.5 790 258.5 784L221 746.5C215 740.5 212 733.5 212 725.5C212 717.5 215 710.5 221 704.5L308 616.75L242 550.75L263 529.75C274.5 518.25 288.75 512.5 305.75 512.5C322.75 512.5 337 518.25 348.5 529.75L351.5 533.5L692 193H812V313ZM360.5 461.5L212 313V193H332L480.5 341.5L360.5 461.5Z" fill="white"/>
</g>
<defs>
<clipPath id="clip0_135_71">
<rect width="1024" height="1024" fill="white"/>
</clipPath>
</defs>
</svg>
