<svg width="1024" height="1024" viewBox="0 0 1024 1024" fill="none" xmlns="http://www.w3.org/2000/svg">
<g clip-path="url(#clip0_134_33)">
<circle cx="512" cy="512" r="512" fill="#C03131"/>
<path d="M453.688 658.789C453.688 608.342 458.721 572.064 468.787 549.954C478.852 527.844 500.199 503.711 532.826 477.553C561.287 455.132 582.981 435.669 597.906 419.164C612.831 402.66 620.294 383.82 620.294 362.645C620.294 337.11 610.748 315.934 591.658 299.118C572.568 282.303 546.015 273.895 512 273.895C476.596 273.895 449.696 283.548 431.3 302.855C412.904 322.162 399.888 341.781 392.252 361.711L285 320.605C299.578 280.746 326.304 246.18 365.179 216.908C404.054 187.636 452.994 173 512 173C584.89 173 640.946 191.217 680.167 227.651C719.389 264.086 739 307.838 739 358.908C739 390.048 731.537 416.673 716.612 438.783C701.687 460.893 678.258 485.961 646.326 513.987C612.31 543.259 591.658 565.524 584.369 580.783C577.08 596.042 573.436 622.044 573.436 658.789H453.688ZM512 883C489.092 883 469.481 875.682 453.167 861.046C436.854 846.41 428.697 828.816 428.697 808.263C428.697 787.711 436.854 770.116 453.167 755.48C469.481 740.844 489.092 733.526 512 733.526C534.908 733.526 554.519 740.844 570.833 755.48C587.146 770.116 595.303 787.711 595.303 808.263C595.303 828.816 587.146 846.41 570.833 861.046C554.519 875.682 534.908 883 512 883Z" fill="black" fill-opacity="0.5"/>
<path d="M453.688 626.789C453.688 576.342 458.721 540.064 468.787 517.954C478.852 495.844 500.199 471.711 532.826 445.553C561.287 423.132 582.981 403.669 597.906 387.164C612.831 370.66 620.294 351.82 620.294 330.645C620.294 305.11 610.748 283.934 591.658 267.118C572.568 250.303 546.015 241.895 512 241.895C476.596 241.895 449.696 251.548 431.3 270.855C412.904 290.162 399.888 309.781 392.252 329.711L285 288.605C299.578 248.746 326.304 214.18 365.179 184.908C404.054 155.636 452.994 141 512 141C584.89 141 640.946 159.217 680.167 195.651C719.389 232.086 739 275.838 739 326.908C739 358.048 731.537 384.673 716.612 406.783C701.687 428.893 678.258 453.961 646.326 481.987C612.31 511.259 591.658 533.524 584.369 548.783C577.08 564.042 573.436 590.044 573.436 626.789H453.688ZM512 851C489.092 851 469.481 843.682 453.167 829.046C436.854 814.41 428.697 796.816 428.697 776.263C428.697 755.711 436.854 738.116 453.167 723.48C469.481 708.844 489.092 701.526 512 701.526C534.908 701.526 554.519 708.844 570.833 723.48C587.146 738.116 595.303 755.711 595.303 776.263C595.303 796.816 587.146 814.41 570.833 829.046C554.519 843.682 534.908 851 512 851Z" fill="white"/>
</g>
<defs>
<clipPath id="clip0_134_33">
<rect width="1024" height="1024" fill="white"/>
</clipPath>
</defs>
</svg>
