<svg width="1024" height="1024" viewBox="0 0 1024 1024" fill="none" xmlns="http://www.w3.org/2000/svg">
<g clip-path="url(#clip0_49_6)">
<rect width="1024" height="1024" fill="white"/>
<path d="M590.933 405.333V375.467C613.689 363.378 638.4 354.311 665.067 348.267C691.733 342.222 718.933 339.2 746.667 339.2C761.6 339.2 775.822 340.089 789.333 341.867C802.844 343.644 817.067 346.311 832 349.867V379.733C817.778 375.467 804.089 372.622 790.933 371.2C777.778 369.778 763.022 369.067 746.667 369.067C718.933 369.067 691.733 372.089 665.067 378.133C638.4 384.178 613.689 393.244 590.933 405.333ZM590.933 637.867V605.867C612.267 593.778 636.8 584.711 664.533 578.667C692.267 572.622 719.644 569.6 746.667 569.6C761.6 569.6 775.822 570.489 789.333 572.267C802.844 574.044 817.067 576.711 832 580.267V610.133C817.778 605.867 804.089 603.022 790.933 601.6C777.778 600.178 763.022 599.467 746.667 599.467C718.933 599.467 691.733 602.844 665.067 609.6C638.4 616.356 613.689 625.778 590.933 637.867ZM590.933 522.667V490.667C613.689 478.578 638.4 469.511 665.067 463.467C691.733 457.422 718.933 454.4 746.667 454.4C761.6 454.4 775.822 455.289 789.333 457.067C802.844 458.844 817.067 461.511 832 465.067V494.933C817.778 490.667 804.089 487.822 790.933 486.4C777.778 484.978 763.022 484.267 746.667 484.267C718.933 484.267 691.733 487.644 665.067 494.4C638.4 501.156 613.689 510.578 590.933 522.667ZM277.333 684.8C315.733 684.8 353.067 689.244 389.333 698.133C425.6 707.022 461.511 721.778 497.067 742.4V324.267C465.778 300.8 430.933 283.2 392.533 271.467C354.133 259.733 315.733 253.867 277.333 253.867C251.733 253.867 230.222 255.111 212.8 257.6C195.378 260.089 174.933 265.244 151.467 273.067C142.933 275.911 136.889 280 133.333 285.333C129.778 290.667 128 296.533 128 302.933V676.267C128 686.222 131.556 693.511 138.667 698.133C145.778 702.756 153.6 703.289 162.133 699.733C174.933 695.467 190.933 691.911 210.133 689.067C229.333 686.222 251.733 684.8 277.333 684.8ZM526.933 742.4C562.489 721.778 598.4 707.022 634.667 698.133C670.933 689.244 708.267 684.8 746.667 684.8C772.267 684.8 794.667 686.222 813.867 689.067C833.067 691.911 849.067 695.467 861.867 699.733C870.4 703.289 878.222 702.756 885.333 698.133C892.444 693.511 896 686.222 896 676.267V302.933C896 296.533 894.222 290.844 890.667 285.867C887.111 280.889 881.067 276.622 872.533 273.067C849.067 265.244 828.622 260.089 811.2 257.6C793.778 255.111 772.267 253.867 746.667 253.867C708.267 253.867 669.867 259.733 631.467 271.467C593.067 283.2 558.222 300.8 526.933 324.267V742.4ZM512 785.067C477.155 762.311 439.822 744.889 400 732.8C360.178 720.711 319.289 714.667 277.333 714.667C257.422 714.667 237.867 715.911 218.667 718.4C199.467 720.889 180.622 725.333 162.133 731.733C146.489 737.422 131.911 735.111 118.4 724.8C104.889 714.489 98.1333 700.444 98.1333 682.667V300.8C98.1333 289.422 101.156 278.933 107.2 269.333C113.244 259.733 121.6 253.156 132.267 249.6C155.022 240.356 178.667 233.778 203.2 229.867C227.733 225.956 252.444 224 277.333 224C319.289 224 360.178 230.222 400 242.667C439.822 255.111 477.155 273.067 512 296.533C546.844 273.067 584.178 255.111 624 242.667C663.822 230.222 704.711 224 746.667 224C771.555 224 796.267 225.956 820.8 229.867C845.333 233.778 868.978 240.356 891.733 249.6C902.4 253.156 910.755 259.733 916.8 269.333C922.844 278.933 925.867 289.422 925.867 300.8V682.667C925.867 700.444 918.4 714.133 903.467 723.733C888.533 733.333 872.533 735.289 855.467 729.6C837.689 723.911 819.733 720 801.6 717.867C783.467 715.733 765.155 714.667 746.667 714.667C704.711 714.667 663.822 720.711 624 732.8C584.178 744.889 546.844 762.311 512 785.067Z" fill="url(#paint0_linear_49_6)"/>
<path d="M407.355 606.448C407.355 606.448 405.808 620.501 311.296 620.501C216.784 620.501 215.403 606.448 215.403 606.448C215.403 591.061 217.323 579.616 220.517 570.667C220.517 570.667 244.475 580.235 275.808 577.099C310.165 573.659 322.144 514.059 322.144 495.077C322.144 473.056 284.629 476.501 284.629 476.501C285.211 469.995 284.629 463.088 284.629 455.168H327.296L332.368 437.867L325.547 428.752C325.536 428.757 325.52 428.752 325.509 428.757L314.667 414.213C333.451 407.296 346.848 389.243 346.848 368.059C346.848 357.963 343.797 348.581 338.576 340.773C351.771 349.589 360.464 364.613 360.464 381.675C360.464 397.461 353.024 411.509 341.461 420.501C350.085 426.293 361.339 433.573 369.957 439.365C369.744 442.373 369.163 446.368 367.627 450.843C366.24 454.869 364.491 458.091 362.971 460.469L339.813 458.955L339.803 458.96C345.243 559.781 407.355 517.056 407.355 606.448Z" fill="url(#paint1_linear_49_6)"/>
<path d="M380.005 534.331C364.917 522.469 349.339 510.224 345.813 465.781L362.971 465.803C364.656 465.803 366.251 465.008 367.259 463.648C371.328 458.176 375.307 446.144 375.301 439.36C375.301 437.584 374.416 435.925 372.944 434.939C368.571 431.995 363.184 428.677 357.803 425.365C354.773 423.493 351.739 421.632 348.896 419.835C363.584 405.019 368.624 383.536 361.68 363.264C354.08 341.061 334.779 327.237 311.291 327.168C287.819 327.189 268.533 341.019 260.971 363.269C254.048 383.627 259.136 405.099 273.872 419.829C271.013 421.632 267.963 423.515 264.896 425.397C259.573 428.672 254.069 432.064 249.653 435.035C248.181 436.021 247.296 437.68 247.296 439.456C247.291 446.24 251.275 458.277 255.344 463.755C256.347 465.109 257.936 465.904 259.627 465.904L277.131 465.877C274.363 506.571 259.157 519.696 243.093 533.547C232.709 542.507 221.979 551.76 215.691 568.389C215.611 568.555 215.541 568.731 215.477 568.912C211.808 579.445 210.139 591.019 210.064 606.421C210.064 606.603 210.069 606.784 210.091 606.971C211.312 619.312 246.304 625.835 311.296 625.835C376.251 625.835 411.301 619.333 412.661 607.035C412.683 606.843 412.693 606.651 412.693 606.453C412.693 560.016 396.075 546.96 380.005 534.331ZM258.229 442.16C261.963 439.739 266.229 437.109 270.496 434.485C275.904 431.157 281.296 427.835 285.659 424.907C287.083 423.952 287.963 422.368 288.011 420.651C288.069 418.939 287.296 417.301 285.936 416.256C270.672 404.501 264.837 385.051 271.072 366.704C275.813 352.757 288.869 337.851 311.28 337.835C333.733 337.899 346.821 352.795 351.589 366.715C357.84 384.976 352.048 404.437 336.837 416.293C335.488 417.344 334.725 418.981 334.789 420.688C334.848 422.395 335.728 423.973 337.141 424.928C341.493 427.851 346.843 431.147 352.197 434.443C356.421 437.045 360.645 439.648 364.357 442.064C363.685 446.048 361.84 451.579 359.995 455.131L342.16 455.115L341.157 455.168H279.296C279.221 455.168 279.163 455.205 279.093 455.211L262.592 455.232C260.741 451.68 258.901 446.149 258.229 442.16ZM311.296 615.168C239.429 615.168 223.68 606.96 220.747 604.752C220.917 591.637 222.373 581.717 225.408 572.832C225.451 572.731 225.493 572.635 225.525 572.533C230.832 558.203 240.171 550.155 250.053 541.627C266.389 527.536 284.773 511.547 287.76 465.835H335.163C338.96 515.493 357.205 529.979 373.408 542.715C388.549 554.608 401.648 564.912 402.011 604.725C399.072 606.933 383.269 615.168 311.296 615.168Z" fill="url(#paint2_linear_49_6)"/>
</g>
<defs>
<linearGradient id="paint0_linear_49_6" x1="512" y1="224" x2="512" y2="785.067" gradientUnits="userSpaceOnUse">
<stop stop-color="#1A6DFF"/>
<stop offset="1" stop-color="#C822FF"/>
</linearGradient>
<linearGradient id="paint1_linear_49_6" x1="311.376" y1="340.773" x2="311.376" y2="620.501" gradientUnits="userSpaceOnUse">
<stop stop-color="#6DC7FF"/>
<stop offset="1" stop-color="#E6ABFF"/>
</linearGradient>
<linearGradient id="paint2_linear_49_6" x1="311.381" y1="327.168" x2="311.381" y2="625.835" gradientUnits="userSpaceOnUse">
<stop stop-color="#1A6DFF"/>
<stop offset="1" stop-color="#C822FF"/>
</linearGradient>
<clipPath id="clip0_49_6">
<rect width="1024" height="1024" fill="white"/>
</clipPath>
</defs>
</svg>
