<svg width="1024" height="1024" viewBox="0 0 1024 1024" fill="none" xmlns="http://www.w3.org/2000/svg">
<g clip-path="url(#clip0_135_85)">
<rect width="1024" height="1024" fill="white"/>
<path d="M590.8 311.333V281.467C613.556 269.378 638.267 260.311 664.933 254.267C691.6 248.222 718.8 245.2 746.533 245.2C761.467 245.2 775.689 246.089 789.2 247.867C802.711 249.644 816.933 252.311 831.867 255.867V285.733C817.644 281.467 803.956 278.622 790.8 277.2C777.644 275.778 762.889 275.067 746.533 275.067C718.8 275.067 691.6 278.089 664.933 284.133C638.267 290.178 613.556 299.244 590.8 311.333ZM590.8 543.867V511.867C612.133 499.778 636.667 490.711 664.4 484.667C692.133 478.622 719.511 475.6 746.533 475.6C761.467 475.6 775.689 476.489 789.2 478.267C802.711 480.044 816.933 482.711 831.867 486.267V516.133C817.644 511.867 803.956 509.022 790.8 507.6C777.644 506.178 762.889 505.467 746.533 505.467C718.8 505.467 691.6 508.844 664.933 515.6C638.267 522.356 613.556 531.778 590.8 543.867ZM590.8 428.667V396.667C613.556 384.578 638.267 375.511 664.933 369.467C691.6 363.422 718.8 360.4 746.533 360.4C761.467 360.4 775.689 361.289 789.2 363.067C802.711 364.844 816.933 367.511 831.867 371.067V400.933C817.644 396.667 803.956 393.822 790.8 392.4C777.644 390.978 762.889 390.267 746.533 390.267C718.8 390.267 691.6 393.644 664.933 400.4C638.267 407.156 613.556 416.578 590.8 428.667ZM277.2 590.8C315.6 590.8 352.933 595.244 389.2 604.133C425.467 613.022 461.378 627.778 496.933 648.4V230.267C465.644 206.8 430.8 189.2 392.4 177.467C354 165.733 315.6 159.867 277.2 159.867C251.6 159.867 230.089 161.111 212.667 163.6C195.244 166.089 174.8 171.244 151.333 179.067C142.8 181.911 136.756 186 133.2 191.333C129.644 196.667 127.867 202.533 127.867 208.933V582.267C127.867 592.222 131.422 599.511 138.533 604.133C145.644 608.756 153.467 609.289 162 605.733C174.8 601.467 190.8 597.911 210 595.067C229.2 592.222 251.6 590.8 277.2 590.8ZM526.8 648.4C562.356 627.778 598.267 613.022 634.533 604.133C670.8 595.244 708.133 590.8 746.533 590.8C772.133 590.8 794.533 592.222 813.733 595.067C832.933 597.911 848.933 601.467 861.733 605.733C870.267 609.289 878.089 608.756 885.2 604.133C892.311 599.511 895.867 592.222 895.867 582.267V208.933C895.867 202.533 894.089 196.844 890.533 191.867C886.978 186.889 880.933 182.622 872.4 179.067C848.933 171.244 828.489 166.089 811.067 163.6C793.644 161.111 772.133 159.867 746.533 159.867C708.133 159.867 669.733 165.733 631.333 177.467C592.933 189.2 558.089 206.8 526.8 230.267V648.4ZM511.867 691.067C477.022 668.311 439.689 650.889 399.867 638.8C360.044 626.711 319.156 620.667 277.2 620.667C257.289 620.667 237.733 621.911 218.533 624.4C199.333 626.889 180.489 631.333 162 637.733C146.356 643.422 131.778 641.111 118.267 630.8C104.756 620.489 98 606.444 98 588.667V206.8C98 195.422 101.022 184.933 107.067 175.333C113.111 165.733 121.467 159.156 132.133 155.6C154.889 146.356 178.533 139.778 203.067 135.867C227.6 131.956 252.311 130 277.2 130C319.156 130 360.044 136.222 399.867 148.667C439.689 161.111 477.022 179.067 511.867 202.533C546.711 179.067 584.044 161.111 623.867 148.667C663.689 136.222 704.578 130 746.533 130C771.422 130 796.133 131.956 820.667 135.867C845.2 139.778 868.844 146.356 891.6 155.6C902.267 159.156 910.622 165.733 916.667 175.333C922.711 184.933 925.733 195.422 925.733 206.8V588.667C925.733 606.444 918.267 620.133 903.333 629.733C888.4 639.333 872.4 641.289 855.333 635.6C837.556 629.911 819.6 626 801.467 623.867C783.333 621.733 765.022 620.667 746.533 620.667C704.578 620.667 663.689 626.711 623.867 638.8C584.044 650.889 546.711 668.311 511.867 691.067Z" fill="url(#paint0_linear_135_85)"/>
<path d="M407.222 512.448C407.222 512.448 405.675 526.501 311.163 526.501C216.651 526.501 215.27 512.448 215.27 512.448C215.27 497.061 217.19 485.616 220.384 476.666C220.384 476.666 244.342 486.234 275.675 483.098C310.032 479.658 322.011 420.058 322.011 401.077C322.011 379.056 284.496 382.501 284.496 382.501C285.078 375.994 284.496 369.088 284.496 361.168H327.163L332.235 343.866L325.414 334.752C325.403 334.757 325.387 334.752 325.376 334.757L314.534 320.213C333.318 313.296 346.715 295.242 346.715 274.058C346.715 263.962 343.664 254.581 338.443 246.773C351.638 255.589 360.331 270.613 360.331 287.674C360.331 303.461 352.891 317.509 341.328 326.501C349.952 332.293 361.206 339.573 369.824 345.365C369.611 348.373 369.03 352.368 367.494 356.842C366.107 360.869 364.358 364.09 362.838 366.469L339.68 364.954L339.67 364.96C345.11 465.781 407.222 423.056 407.222 512.448Z" fill="url(#paint1_linear_135_85)"/>
<path d="M379.872 440.331C364.784 428.469 349.205 416.224 345.68 371.781L362.837 371.803C364.523 371.803 366.117 371.008 367.125 369.648C371.195 364.176 375.173 352.144 375.168 345.36C375.168 343.584 374.283 341.925 372.811 340.939C368.437 337.995 363.051 334.677 357.669 331.365C354.64 329.493 351.605 327.632 348.763 325.835C363.451 311.019 368.491 289.536 361.547 269.264C353.947 247.061 334.645 233.237 311.157 233.168C287.685 233.189 268.4 247.019 260.837 269.269C253.915 289.627 259.003 311.099 273.739 325.829C270.88 327.632 267.829 329.515 264.763 331.397C259.44 334.672 253.936 338.064 249.52 341.035C248.048 342.021 247.163 343.68 247.163 345.456C247.157 352.24 251.141 364.277 255.211 369.755C256.213 371.109 257.803 371.904 259.493 371.904L276.997 371.877C274.229 412.571 259.024 425.696 242.96 439.547C232.576 448.507 221.845 457.76 215.557 474.389C215.477 474.555 215.408 474.731 215.344 474.912C211.675 485.445 210.005 497.019 209.931 512.421C209.931 512.603 209.936 512.784 209.957 512.971C211.179 525.312 246.171 531.835 311.163 531.835C376.117 531.835 411.168 525.333 412.528 513.035C412.549 512.843 412.56 512.651 412.56 512.453C412.56 466.016 395.941 452.96 379.872 440.331ZM258.096 348.16C261.829 345.739 266.096 343.109 270.363 340.485C275.771 337.157 281.163 333.835 285.525 330.907C286.949 329.952 287.829 328.368 287.877 326.651C287.936 324.939 287.163 323.301 285.803 322.256C270.539 310.501 264.704 291.051 270.939 272.704C275.68 258.757 288.736 243.851 311.147 243.835C333.6 243.899 346.688 258.795 351.456 272.715C357.707 290.976 351.915 310.437 336.704 322.293C335.355 323.344 334.592 324.981 334.656 326.688C334.715 328.395 335.595 329.973 337.008 330.928C341.36 333.851 346.709 337.147 352.064 340.443C356.288 343.045 360.512 345.648 364.224 348.064C363.552 352.048 361.707 357.579 359.861 361.131L342.027 361.115L341.024 361.168H279.163C279.088 361.168 279.029 361.205 278.96 361.211L262.459 361.232C260.608 357.68 258.768 352.149 258.096 348.16ZM311.163 521.168C239.296 521.168 223.547 512.96 220.613 510.752C220.784 497.637 222.24 487.717 225.275 478.832C225.317 478.731 225.36 478.635 225.392 478.533C230.699 464.203 240.037 456.155 249.92 447.627C266.256 433.536 284.64 417.547 287.627 371.835H335.029C338.827 421.493 357.072 435.979 373.275 448.715C388.416 460.608 401.515 470.912 401.877 510.725C398.939 512.933 383.136 521.168 311.163 521.168Z" fill="url(#paint2_linear_135_85)"/>
<path d="M73.696 868.152C69.216 868.152 65.184 867.32 61.6 865.656C58.08 863.928 55.072 861.56 52.576 858.552C50.08 855.48 48.16 851.832 46.816 847.608C45.536 843.32 44.896 838.616 44.896 833.496C44.896 827.928 45.6 823 47.008 818.712C48.48 814.36 50.464 810.712 52.96 807.768C55.456 804.824 58.4 802.616 61.792 801.144C65.248 799.608 68.96 798.84 72.928 798.84C77.088 798.84 80.416 799.544 82.912 800.952C85.472 802.36 87.2 803.992 88.096 805.848H88.576V799.992H97.312V820.344H88.576V815.64C88.576 812.376 87.296 809.784 84.736 807.864C82.24 805.88 78.816 804.888 74.464 804.888C71.584 804.888 69.056 805.4 66.88 806.424C64.768 807.384 63.008 808.792 61.6 810.648C60.256 812.44 59.232 814.616 58.528 817.176C57.824 819.672 57.472 822.424 57.472 825.432V840.408C57.472 847 59.104 852.056 62.368 855.576C65.696 859.096 70.208 860.856 75.904 860.856C80.256 860.856 83.904 859.736 86.848 857.496C89.856 855.192 92.064 852.216 93.472 848.568L97.984 850.968C97.28 853.08 96.224 855.16 94.816 857.208C93.472 859.256 91.776 861.112 89.728 862.776C87.68 864.376 85.312 865.688 82.624 866.712C79.936 867.672 76.96 868.152 73.696 868.152ZM105.976 861.816H112.504V802.872L105.976 801.624V797.4L123.256 794.04V824.856H123.736C124.12 823.768 124.696 822.68 125.464 821.592C126.296 820.504 127.288 819.544 128.44 818.712C129.592 817.88 130.936 817.208 132.472 816.696C134.008 816.184 135.736 815.928 137.656 815.928C143.736 815.928 148.056 817.496 150.616 820.632C153.176 823.704 154.456 828.344 154.456 834.552V861.816H160.984V867H137.368V861.816H143.704V835.128C143.704 830.968 142.904 827.928 141.304 826.008C139.704 824.088 137.176 823.128 133.72 823.128C132.44 823.128 131.16 823.32 129.88 823.704C128.664 824.024 127.544 824.568 126.52 825.336C125.56 826.04 124.76 826.936 124.12 828.024C123.544 829.112 123.256 830.424 123.256 831.96V861.816H129.592V867H105.976V861.816ZM191.298 868.152C187.586 868.152 184.29 867.544 181.41 866.328C178.53 865.048 176.098 863.256 174.114 860.952C172.13 858.648 170.594 855.896 169.506 852.696C168.482 849.496 167.97 845.944 167.97 842.04C167.97 838.072 168.514 834.488 169.602 831.288C170.754 828.088 172.322 825.368 174.306 823.128C176.354 820.824 178.754 819.064 181.506 817.848C184.322 816.568 187.394 815.928 190.722 815.928C194.114 815.928 197.154 816.504 199.842 817.656C202.53 818.744 204.802 820.312 206.658 822.36C208.578 824.408 210.05 826.872 211.074 829.752C212.098 832.632 212.61 835.832 212.61 839.352V841.944H179.586V845.016C179.586 850.008 180.834 853.88 183.33 856.632C185.826 859.32 189.186 860.664 193.41 860.664C197.122 860.664 200.098 859.864 202.338 858.264C204.642 856.6 206.338 854.552 207.426 852.12L211.554 854.616C210.978 856.28 210.114 857.912 208.962 859.512C207.874 861.112 206.498 862.552 204.834 863.832C203.17 865.112 201.218 866.168 198.978 867C196.738 867.768 194.178 868.152 191.298 868.152ZM179.586 836.856H201.474V835.8C201.474 831.192 200.578 827.64 198.786 825.144C197.058 822.584 194.37 821.304 190.722 821.304C187.138 821.304 184.386 822.552 182.466 825.048C180.546 827.48 179.586 831 179.586 835.608V836.856ZM241.109 868.152C237.846 868.152 235.19 867.512 233.142 866.232C231.094 864.952 229.75 863.544 229.109 862.008H228.726V867H221.43V852.12H228.726V853.848C228.726 856.536 229.558 858.648 231.222 860.184C232.886 861.72 235.574 862.488 239.286 862.488C246.198 862.488 249.654 860.056 249.654 855.192C249.654 851.416 247.158 848.92 242.166 847.704L236.982 846.456C231.862 845.24 228.054 843.384 225.558 840.888C223.062 838.392 221.814 834.968 221.814 830.616C221.814 825.944 223.382 822.328 226.518 819.768C229.654 817.208 233.814 815.928 238.998 815.928C242.198 815.928 244.758 816.472 246.678 817.56C248.598 818.648 249.846 819.96 250.422 821.496H250.806V817.08H258.102V831.96H250.806V829.176C250.806 824.12 247.382 821.592 240.534 821.592C237.59 821.592 235.318 822.168 233.718 823.32C232.182 824.408 231.414 826.072 231.414 828.312C231.414 832.28 233.974 834.904 239.094 836.184L243.99 837.336C249.174 838.488 253.046 840.248 255.606 842.616C258.166 844.92 259.446 848.344 259.446 852.888C259.446 857.496 257.782 861.208 254.454 864.024C251.19 866.776 246.742 868.152 241.109 868.152ZM288.266 868.152C285.002 868.152 282.346 867.512 280.298 866.232C278.25 864.952 276.906 863.544 276.266 862.008H275.882V867H268.586V852.12H275.882V853.848C275.882 856.536 276.714 858.648 278.378 860.184C280.042 861.72 282.73 862.488 286.442 862.488C293.354 862.488 296.81 860.056 296.81 855.192C296.81 851.416 294.314 848.92 289.322 847.704L284.138 846.456C279.018 845.24 275.21 843.384 272.714 840.888C270.218 838.392 268.97 834.968 268.97 830.616C268.97 825.944 270.538 822.328 273.674 819.768C276.81 817.208 280.97 815.928 286.154 815.928C289.354 815.928 291.914 816.472 293.834 817.56C295.754 818.648 297.002 819.96 297.578 821.496H297.962V817.08H305.258V831.96H297.962V829.176C297.962 824.12 294.538 821.592 287.69 821.592C284.746 821.592 282.474 822.168 280.874 823.32C279.338 824.408 278.57 826.072 278.57 828.312C278.57 832.28 281.13 834.904 286.25 836.184L291.146 837.336C296.33 838.488 300.202 840.248 302.762 842.616C305.322 844.92 306.602 848.344 306.602 852.888C306.602 857.496 304.938 861.208 301.61 864.024C298.346 866.776 293.898 868.152 288.266 868.152ZM368.953 862.2C374.457 862.2 378.809 860.376 382.009 856.728C385.209 853.016 386.809 847.864 386.809 841.272V825.72C386.809 819.128 385.209 814.008 382.009 810.36C378.809 806.648 374.457 804.792 368.953 804.792C363.449 804.792 359.097 806.648 355.897 810.36C352.697 814.008 351.097 819.128 351.097 825.72V841.272C351.097 847.864 352.697 853.016 355.897 856.728C359.097 860.376 363.449 862.2 368.953 862.2ZM368.953 868.152C364.473 868.152 360.377 867.384 356.665 865.848C352.953 864.248 349.753 861.976 347.065 859.032C344.377 856.024 342.265 852.376 340.729 848.088C339.257 843.8 338.521 838.936 338.521 833.496C338.521 828.056 339.257 823.192 340.729 818.904C342.265 814.616 344.377 811 347.065 808.056C349.753 805.048 352.953 802.776 356.665 801.24C360.377 799.64 364.473 798.84 368.953 798.84C373.433 798.84 377.529 799.64 381.241 801.24C384.953 802.776 388.153 805.048 390.841 808.056C393.529 811 395.609 814.616 397.081 818.904C398.617 823.192 399.385 828.056 399.385 833.496C399.385 838.936 398.617 843.8 397.081 848.088C395.609 852.376 393.529 856.024 390.841 859.032C388.153 861.976 384.953 864.248 381.241 865.848C377.529 867.384 373.433 868.152 368.953 868.152ZM407.577 881.016H414.105V824.76L407.577 823.512V819.288L424.857 815.928V824.568H425.337C426.361 822.264 428.025 820.248 430.329 818.52C432.633 816.792 435.641 815.928 439.353 815.928C442.425 815.928 445.209 816.536 447.705 817.752C450.201 818.904 452.313 820.6 454.041 822.84C455.769 825.08 457.113 827.832 458.073 831.096C459.033 834.296 459.513 837.944 459.513 842.04C459.513 846.136 459.033 849.816 458.073 853.08C457.113 856.28 455.769 859 454.041 861.24C452.313 863.48 450.201 865.208 447.705 866.424C445.209 867.576 442.425 868.152 439.353 868.152C435.577 868.152 432.537 867.288 430.233 865.56C427.993 863.832 426.361 861.816 425.337 859.512H424.857V881.016H433.305V886.2H407.577V881.016ZM435.993 861.24C439.641 861.24 442.553 859.992 444.729 857.496C446.905 855 447.993 851.544 447.993 847.128V836.952C447.993 832.536 446.905 829.08 444.729 826.584C442.553 824.088 439.641 822.84 435.993 822.84C434.521 822.84 433.113 823.064 431.769 823.512C430.489 823.896 429.305 824.504 428.217 825.336C427.193 826.168 426.361 827.16 425.721 828.312C425.145 829.464 424.857 830.776 424.857 832.248V851.832C424.857 853.304 425.145 854.616 425.721 855.768C426.361 856.92 427.193 857.912 428.217 858.744C429.305 859.576 430.489 860.216 431.769 860.664C433.113 861.048 434.521 861.24 435.993 861.24ZM492.141 868.152C488.429 868.152 485.133 867.544 482.253 866.328C479.373 865.048 476.941 863.256 474.957 860.952C472.973 858.648 471.437 855.896 470.349 852.696C469.325 849.496 468.813 845.944 468.813 842.04C468.813 838.072 469.357 834.488 470.445 831.288C471.597 828.088 473.165 825.368 475.149 823.128C477.197 820.824 479.597 819.064 482.349 817.848C485.165 816.568 488.237 815.928 491.565 815.928C494.957 815.928 497.997 816.504 500.685 817.656C503.373 818.744 505.645 820.312 507.501 822.36C509.421 824.408 510.893 826.872 511.917 829.752C512.941 832.632 513.453 835.832 513.453 839.352V841.944H480.429V845.016C480.429 850.008 481.677 853.88 484.173 856.632C486.669 859.32 490.029 860.664 494.253 860.664C497.965 860.664 500.941 859.864 503.181 858.264C505.485 856.6 507.181 854.552 508.269 852.12L512.397 854.616C511.821 856.28 510.957 857.912 509.805 859.512C508.717 861.112 507.341 862.552 505.677 863.832C504.013 865.112 502.061 866.168 499.821 867C497.581 867.768 495.021 868.152 492.141 868.152ZM480.429 836.856H502.317V835.8C502.317 831.192 501.421 827.64 499.629 825.144C497.901 822.584 495.213 821.304 491.565 821.304C487.981 821.304 485.229 822.552 483.309 825.048C481.389 827.48 480.429 831 480.429 835.608V836.856ZM521.505 861.816H528.033V824.76L521.505 823.512V819.288L538.497 815.928V824.856H538.977C539.361 823.768 539.937 822.68 540.705 821.592C541.537 820.504 542.529 819.544 543.681 818.712C544.897 817.88 546.273 817.208 547.809 816.696C549.409 816.184 551.201 815.928 553.185 815.928C559.265 815.928 563.585 817.496 566.145 820.632C568.705 823.704 569.985 828.344 569.985 834.552V861.816H576.513V867H552.897V861.816H559.233V835.128C559.233 830.968 558.433 827.928 556.833 826.008C555.233 824.088 552.705 823.128 549.249 823.128C547.969 823.128 546.689 823.32 545.409 823.704C544.193 824.024 543.073 824.568 542.049 825.336C541.089 826.04 540.289 826.936 539.649 828.024C539.073 829.112 538.785 830.424 538.785 831.96V861.816H545.121V867H521.505V861.816ZM595.659 807.768C593.611 807.768 592.011 807.192 590.859 806.04C589.707 804.824 589.131 803.288 589.131 801.432V800.856C589.131 799 589.707 797.496 590.859 796.344C592.011 795.128 593.611 794.52 595.659 794.52C597.707 794.52 599.307 795.128 600.459 796.344C601.611 797.496 602.187 799 602.187 800.856V801.432C602.187 803.288 601.611 804.824 600.459 806.04C599.307 807.192 597.707 807.768 595.659 807.768ZM583.755 861.816H590.283V824.76L583.755 823.512V819.288L601.035 815.928V861.816H607.563V867H583.755V861.816ZM614.787 861.816H621.315V824.76L614.787 823.512V819.288L631.779 815.928V824.856H632.259C632.643 823.768 633.219 822.68 633.987 821.592C634.819 820.504 635.811 819.544 636.963 818.712C638.179 817.88 639.555 817.208 641.091 816.696C642.691 816.184 644.483 815.928 646.467 815.928C652.547 815.928 656.867 817.496 659.427 820.632C661.987 823.704 663.267 828.344 663.267 834.552V861.816H669.795V867H646.179V861.816H652.515V835.128C652.515 830.968 651.715 827.928 650.115 826.008C648.515 824.088 645.987 823.128 642.531 823.128C641.251 823.128 639.971 823.32 638.691 823.704C637.475 824.024 636.355 824.568 635.331 825.336C634.371 826.04 633.571 826.936 632.931 828.024C632.355 829.112 632.067 830.424 632.067 831.96V861.816H638.403V867H614.787V861.816ZM698.637 887.352C694.413 887.352 690.861 887.064 687.981 886.488C685.101 885.976 682.797 885.208 681.069 884.184C679.341 883.224 678.093 882.008 677.325 880.536C676.557 879.128 676.173 877.56 676.173 875.832C676.173 874.552 676.461 873.368 677.037 872.28C677.613 871.256 678.381 870.328 679.341 869.496C680.301 868.728 681.421 868.056 682.701 867.48C683.981 866.904 685.293 866.456 686.637 866.136V865.752C684.525 865.176 682.893 864.152 681.741 862.68C680.589 861.208 680.013 859.352 680.013 857.112C680.013 854.36 680.877 852.216 682.605 850.68C684.397 849.144 686.509 848.056 688.941 847.416V847.032C685.869 845.752 683.437 843.896 681.645 841.464C679.853 838.968 678.957 835.928 678.957 832.344C678.957 829.784 679.437 827.48 680.397 825.432C681.421 823.384 682.797 821.656 684.525 820.248C686.317 818.84 688.429 817.784 690.861 817.08C693.293 816.312 695.981 815.928 698.925 815.928C701.805 815.928 704.237 816.216 706.221 816.792C708.205 817.368 710.029 818.2 711.693 819.288C711.821 815.64 712.621 813.08 714.093 811.608C715.565 810.072 717.453 809.304 719.757 809.304C721.357 809.304 722.669 809.784 723.693 810.744C724.781 811.64 725.325 812.92 725.325 814.584C725.325 816.12 724.813 817.4 723.789 818.424C722.829 819.384 721.485 819.864 719.757 819.864C717.837 819.864 716.269 819.16 715.053 817.752H714.669V821.688C715.821 822.84 716.845 824.28 717.741 826.008C718.637 827.672 719.085 829.784 719.085 832.344C719.085 834.904 718.573 837.208 717.549 839.256C716.589 841.304 715.213 843.032 713.421 844.44C711.629 845.848 709.485 846.936 706.989 847.704C704.557 848.472 701.869 848.856 698.925 848.856C697.837 848.856 696.781 848.792 695.757 848.664C694.797 848.536 693.837 848.376 692.877 848.184C691.533 848.632 690.381 849.304 689.421 850.2C688.461 851.096 687.981 852.184 687.981 853.464C687.981 854.936 688.525 855.992 689.613 856.632C690.765 857.272 692.653 857.592 695.277 857.592H706.509C712.717 857.592 717.229 858.808 720.045 861.24C722.861 863.672 724.269 867 724.269 871.224C724.269 876.216 722.125 880.152 717.837 883.032C713.613 885.912 707.213 887.352 698.637 887.352ZM699.021 843.672C702.093 843.672 704.397 842.84 705.933 841.176C707.469 839.512 708.237 837.112 708.237 833.976V830.808C708.237 827.672 707.469 825.272 705.933 823.608C704.397 821.944 702.093 821.112 699.021 821.112C695.949 821.112 693.645 821.944 692.109 823.608C690.573 825.272 689.805 827.672 689.805 830.808V833.976C689.805 837.112 690.573 839.512 692.109 841.176C693.645 842.84 695.949 843.672 699.021 843.672ZM685.197 874.968C685.197 877.336 686.189 879.096 688.173 880.248C690.157 881.4 692.973 881.976 696.621 881.976H701.805C706.157 881.976 709.485 881.272 711.789 879.864C714.157 878.52 715.341 876.6 715.341 874.104C715.341 871.8 714.541 870.136 712.941 869.112C711.405 868.088 708.877 867.576 705.357 867.576H689.805C686.733 869.176 685.197 871.64 685.197 874.968ZM753.548 861.816H760.556V805.176H753.548V799.992H786.764C793.356 799.992 798.316 801.464 801.644 804.408C804.972 807.352 806.636 811.16 806.636 815.832C806.636 818.2 806.252 820.312 805.484 822.168C804.716 823.96 803.692 825.496 802.412 826.776C801.196 828.056 799.788 829.112 798.188 829.944C796.588 830.776 794.924 831.352 793.196 831.672V832.152C794.988 832.344 796.812 832.792 798.668 833.496C800.588 834.2 802.316 835.224 803.852 836.568C805.452 837.912 806.732 839.576 807.692 841.56C808.716 843.48 809.228 845.752 809.228 848.376C809.228 854.2 807.468 858.776 803.948 862.104C800.428 865.368 795.532 867 789.26 867H753.548V861.816ZM771.98 861.432H785.996C789.644 861.432 792.46 860.44 794.444 858.456C796.428 856.408 797.42 853.752 797.42 850.488V846.168C797.42 842.904 796.428 840.28 794.444 838.296C792.46 836.248 789.644 835.224 785.996 835.224H771.98V861.432ZM771.98 829.56H784.364C787.82 829.56 790.412 828.664 792.14 826.872C793.932 825.08 794.828 822.68 794.828 819.672V815.448C794.828 812.44 793.932 810.04 792.14 808.248C790.412 806.456 787.82 805.56 784.364 805.56H771.98V829.56ZM842.019 862.488C846.051 862.488 848.995 861.24 850.851 858.744C852.771 856.248 853.731 852.92 853.731 848.76V835.32C853.731 831.16 852.771 827.832 850.851 825.336C848.995 822.84 846.051 821.592 842.019 821.592C837.987 821.592 835.011 822.84 833.091 825.336C831.235 827.832 830.307 831.16 830.307 835.32V848.76C830.307 852.92 831.235 856.248 833.091 858.744C835.011 861.24 837.987 862.488 842.019 862.488ZM842.019 868.152C838.499 868.152 835.299 867.544 832.419 866.328C829.539 865.112 827.075 863.384 825.027 861.144C822.979 858.904 821.379 856.184 820.227 852.984C819.139 849.72 818.595 846.072 818.595 842.04C818.595 838.008 819.139 834.392 820.227 831.192C821.379 827.928 822.979 825.176 825.027 822.936C827.075 820.696 829.539 818.968 832.419 817.752C835.299 816.536 838.499 815.928 842.019 815.928C845.539 815.928 848.739 816.536 851.619 817.752C854.499 818.968 856.963 820.696 859.011 822.936C861.059 825.176 862.627 827.928 863.715 831.192C864.867 834.392 865.443 838.008 865.443 842.04C865.443 846.072 864.867 849.72 863.715 852.984C862.627 856.184 861.059 858.904 859.011 861.144C856.963 863.384 854.499 865.112 851.619 866.328C848.739 867.544 845.539 868.152 842.019 868.152ZM897.894 862.488C901.926 862.488 904.87 861.24 906.726 858.744C908.646 856.248 909.606 852.92 909.606 848.76V835.32C909.606 831.16 908.646 827.832 906.726 825.336C904.87 822.84 901.926 821.592 897.894 821.592C893.862 821.592 890.886 822.84 888.966 825.336C887.11 827.832 886.182 831.16 886.182 835.32V848.76C886.182 852.92 887.11 856.248 888.966 858.744C890.886 861.24 893.862 862.488 897.894 862.488ZM897.894 868.152C894.374 868.152 891.174 867.544 888.294 866.328C885.414 865.112 882.95 863.384 880.902 861.144C878.854 858.904 877.254 856.184 876.102 852.984C875.014 849.72 874.47 846.072 874.47 842.04C874.47 838.008 875.014 834.392 876.102 831.192C877.254 827.928 878.854 825.176 880.902 822.936C882.95 820.696 885.414 818.968 888.294 817.752C891.174 816.536 894.374 815.928 897.894 815.928C901.414 815.928 904.614 816.536 907.494 817.752C910.374 818.968 912.838 820.696 914.886 822.936C916.934 825.176 918.502 827.928 919.59 831.192C920.742 834.392 921.318 838.008 921.318 842.04C921.318 846.072 920.742 849.72 919.59 852.984C918.502 856.184 916.934 858.904 914.886 861.144C912.838 863.384 910.374 865.112 907.494 866.328C904.614 867.544 901.414 868.152 897.894 868.152ZM928.351 861.816H934.879V802.872L928.351 801.624V797.4L945.631 794.04V843.192H946.111L953.215 835.128L965.023 822.264H958.783V817.08H979.999V822.264H972.895L960.223 835.32L977.215 861.816H982.111V867H959.743V861.816H965.119L953.023 842.136L945.631 849.912V861.816H951.967V867H928.351V861.816Z" fill="#8700B4"/>
</g>
<defs>
<linearGradient id="paint0_linear_135_85" x1="511.867" y1="130" x2="511.867" y2="691.067" gradientUnits="userSpaceOnUse">
<stop stop-color="#1A6DFF"/>
<stop offset="1" stop-color="#C822FF"/>
</linearGradient>
<linearGradient id="paint1_linear_135_85" x1="311.243" y1="246.773" x2="311.243" y2="526.501" gradientUnits="userSpaceOnUse">
<stop stop-color="#6DC7FF"/>
<stop offset="1" stop-color="#E6ABFF"/>
</linearGradient>
<linearGradient id="paint2_linear_135_85" x1="311.248" y1="233.168" x2="311.248" y2="531.835" gradientUnits="userSpaceOnUse">
<stop stop-color="#1A6DFF"/>
<stop offset="1" stop-color="#C822FF"/>
</linearGradient>
<clipPath id="clip0_135_85">
<rect width="1024" height="1024" fill="white"/>
</clipPath>
</defs>
</svg>
