<svg width="1024" height="1024" viewBox="0 0 1024 1024" fill="none" xmlns="http://www.w3.org/2000/svg">
<g clip-path="url(#clip0_135_49)">
<circle cx="512" cy="512" r="512" fill="#35C0C9"/>
<path d="M511.959 889C487.475 889 466.528 880.715 449.117 864.145C431.706 847.569 423 827.641 423 804.361C423 781.087 431.716 761.175 449.147 744.624C466.585 728.074 487.55 719.799 512.041 719.799C536.525 719.799 557.472 728.087 574.883 744.663C592.295 761.233 601 781.158 601 804.438C601 827.712 592.281 847.624 574.843 864.174C557.411 880.725 536.45 889 511.959 889ZM426.889 642.37V169H597.111V642.37H426.889Z" fill="black" fill-opacity="0.5"/>
<path d="M511.959 855C487.475 855 466.528 846.715 449.117 830.145C431.706 813.569 423 793.641 423 770.361C423 747.087 431.716 727.175 449.147 710.624C466.585 694.074 487.55 685.799 512.041 685.799C536.525 685.799 557.472 694.087 574.883 710.663C592.295 727.233 601 747.158 601 770.438C601 793.712 592.281 813.624 574.843 830.174C557.411 846.725 536.45 855 511.959 855ZM426.889 608.37V135H597.111V608.37H426.889Z" fill="white"/>
</g>
<defs>
<clipPath id="clip0_135_49">
<rect width="1024" height="1024" fill="white"/>
</clipPath>
</defs>
</svg>
